<svg width="128" height="128" viewBox="0 0 128 128" fill="none" xmlns="http://www.w3.org/2000/svg">

<path d="M46.6951 70.4121C39.6563 71.7998 32.7951 74.0293 26.2918 77.057C26.8042 77.4149 27.3114 77.7779 27.816 78.1435C36.2579 84.2839 43.7164 91.745 49.8541 100.184C50.2223 100.689 50.5827 101.196 50.9406 101.709C53.9708 95.2078 56.2004 88.3465 57.5906 81.3051C52.5574 79.4411 48.5591 75.4428 46.6951 70.4095V70.4121Z"/>
<path d="M70.4084 81.3075C71.7987 88.349 74.0282 95.2076 77.0585 101.711C77.4163 101.199 77.7793 100.691 78.1449 100.187C84.2801 91.7474 91.7385 84.2863 100.183 78.1459C100.688 77.7778 101.195 77.4173 101.707 77.0595C95.2039 74.0318 88.3427 71.8022 81.3039 70.4145C79.4399 75.4478 75.4416 79.4461 70.4084 81.3101V81.3075Z"/>
<path d="M57.5906 46.6975C56.2004 39.6561 53.9708 32.7974 50.9406 26.294C50.5827 26.8064 50.2197 27.3136 49.8541 27.8182C43.719 36.2576 36.2605 43.7187 27.816 49.8591C27.3114 50.2273 26.8042 50.5877 26.2918 50.9456C32.7951 53.9733 39.6563 56.2028 46.6951 57.5905C48.5591 52.5572 52.5574 48.5589 57.5906 46.6949V46.6975Z"/>
<path d="M64.0002 33.7887C64.1083 33.4514 64.219 33.1116 64.3323 32.7743C66.1551 27.3085 68.4619 22.0049 71.2424 16.8943C68.4619 11.7838 66.1551 6.4802 64.3323 1.01438C64.219 0.677112 64.1083 0.339843 64.0002 0C63.8921 0.337269 63.7814 0.677112 63.6681 1.01438C61.8453 6.4802 59.5411 11.7838 56.758 16.8943C59.5385 22.0049 61.8453 27.3085 63.6681 32.7743C63.7814 33.1116 63.8921 33.4488 64.0002 33.7887V33.7887Z"/>
<path d="M64.0002 94.2113C63.8921 94.5486 63.7814 94.8884 63.6681 95.2257C61.8453 100.692 59.5411 105.995 56.758 111.106C59.5385 116.216 61.8453 121.52 63.6681 126.986C63.7814 127.323 63.8921 127.66 64.0002 128C64.1083 127.663 64.219 127.323 64.3323 126.986C66.1551 121.52 68.4619 116.216 71.2424 111.106C68.4619 105.995 66.1551 100.692 64.3323 95.2257C64.219 94.8884 64.1083 94.5512 64.0002 94.2113V94.2113Z"/>
<path d="M33.7884 64.001C33.4511 63.8928 33.1113 63.7821 32.774 63.6688C27.3082 61.846 22.0047 59.5392 16.8942 56.7587C11.7837 59.5392 6.48014 61.846 1.01437 63.6688C0.677106 63.7821 0.33984 63.8928 0 64.001C0.337266 64.1091 0.677106 64.2198 1.01437 64.3331C6.48014 66.1559 11.7837 68.4627 16.8942 71.2432C22.0047 68.4627 27.3082 66.1559 32.774 64.3331C33.1113 64.2198 33.4485 64.1091 33.7884 64.001V64.001Z"/>
<path d="M126.986 63.6688C121.52 61.846 116.216 59.5392 111.106 56.7587C105.995 59.5392 100.692 61.846 95.226 63.6688C94.8887 63.7821 94.5515 63.8928 94.2116 64.001C94.5489 64.1091 94.8887 64.2198 95.226 64.3331C100.692 66.1559 105.995 68.4627 111.106 71.2432C116.216 68.4627 121.52 66.1559 126.986 64.3331C127.323 64.2198 127.66 64.1091 128 64.001C127.663 63.8928 127.323 63.7821 126.986 63.6688Z"/>
<path d="M64.0022 75.386C70.2897 75.386 75.3868 70.2888 75.3868 64.0012C75.3868 57.7136 70.2897 52.6165 64.0022 52.6165C57.7146 52.6165 52.6175 57.7136 52.6175 64.0012C52.6175 70.2888 57.7146 75.386 64.0022 75.386Z"/>
<path d="M81.3039 57.5932C88.3427 56.2055 95.2039 53.9759 101.707 50.9482C101.195 50.5904 100.688 50.2274 100.183 49.8618C91.7411 43.7214 84.2826 36.2603 78.1449 27.8209C77.7768 27.3163 77.4163 26.8091 77.0585 26.2967C74.0282 32.7975 71.7987 39.6588 70.4084 46.7002C75.4416 48.5642 79.4399 52.5625 81.3039 57.5958V57.5932Z"/>
 <style>
        path { fill: #000; }
        @media (prefers-color-scheme: dark) {
            path { fill: #FFF; }
        }
 </style>
</svg>